<?xml version="1.0" encoding="UTF-8" standalone="no" ?>
<!DOCTYPE svg PUBLIC "-//W3C//DTD SVG 1.1//EN" "http://www.w3.org/Graphics/SVG/1.1/DTD/svg11.dtd">
<svg xmlns="http://www.w3.org/2000/svg" xmlns:xlink="http://www.w3.org/1999/xlink" version="1.1" width="1080" height="1080" viewBox="0 0 1080 1080" xml:space="preserve">
<desc>Created with Fabric.js 5.2.4</desc>
<defs>
</defs>
<g transform="matrix(1 0 0 1 540 540)" id="a7394cc3-9a24-4882-bd24-4d594ae5b52e"  >
<rect style="stroke: none; stroke-width: 1; stroke-dasharray: none; stroke-linecap: butt; stroke-dashoffset: 0; stroke-linejoin: miter; stroke-miterlimit: 4; fill: rgb(255,255,255); fill-rule: nonzero; opacity: 1; visibility: hidden;" vector-effect="non-scaling-stroke"  x="-540" y="-540" rx="0" ry="0" width="1080" height="1080" />
</g>
<g transform="matrix(1 0 0 1 540 540)" id="c0fd9e79-ab01-496e-a1eb-2b43ed75c0c8"  >
</g>
<g transform="matrix(1 0 0 1 540 540)"  >
<g style="" vector-effect="non-scaling-stroke"   >
		<g transform="matrix(1 0 0 1 24.28 -32.26)"  >
<linearGradient id="SVGID_7" gradientUnits="userSpaceOnUse" gradientTransform="matrix(1 0 0 1 0 0)"  x1="59.68" y1="64.2" x2="20.35" y2="41.6">
<stop offset="18%" style="stop-color:rgb(19,2,17);stop-opacity: 1"/>
<stop offset="100%" style="stop-color:rgb(255,38,38);stop-opacity: 1"/>
</linearGradient>
<path style="stroke: none; stroke-width: 1; stroke-dasharray: none; stroke-linecap: butt; stroke-dashoffset: 0; stroke-linejoin: miter; stroke-miterlimit: 4; fill: url(#SVGID_7); fill-rule: evenodd; opacity: 1;" vector-effect="non-scaling-stroke"  transform=" translate(-74.29, -17.74)" d="M 66.965 25.141 L 81.60600000000001 25.141 L 66.965 10.335999999999999 z" stroke-linecap="round" />
</g>
		<g transform="matrix(1 0 0 1 5.12 -5.11)"  >
<linearGradient id="SVGID_8" gradientUnits="userSpaceOnUse" gradientTransform="matrix(1 0 0 1 0 0)"  x1="59.68" y1="64.2" x2="20.35" y2="41.6">
<stop offset="18%" style="stop-color:rgb(19,2,17);stop-opacity: 1"/>
<stop offset="100%" style="stop-color:rgb(255,38,38);stop-opacity: 1"/>
</linearGradient>
<path style="stroke: none; stroke-width: 1; stroke-dasharray: none; stroke-linecap: butt; stroke-dashoffset: 0; stroke-linejoin: miter; stroke-miterlimit: 4; fill: url(#SVGID_8); fill-rule: evenodd; opacity: 1;" vector-effect="non-scaling-stroke"  transform=" translate(-55.11, -44.89)" d="M 83.227 27.465 L 65.805 27.465 C 65.15656000000001 27.465 64.63310000000001 26.93766 64.63310000000001 26.2931 L 64.63310000000001 8.6721 L 26.996100000000013 8.6721 L 26.996100000000013 81.1101 L 83.2261 81.1101 z M 41.329 10.297 C 46.4696 10.297 51.1024 13.3947 53.067 18.1408 C 55.0358 22.8908 53.94981 28.3558 50.3131 31.988799999999998 C 46.680299999999995 35.6216 41.2154 36.7076 36.4691 34.7427 C 31.719099999999997 32.7739 28.625299999999996 28.145 28.625299999999996 23.0047 C 28.625299999999996 15.9891 34.312799999999996 10.3017 41.3283 10.3017 z M 44.5399 38.543 L 44.5399 38.546906 C 43.899280000000005 38.546906 43.3797 38.023466 43.3797 37.382806 C 43.3797 36.742186000000004 43.89923 36.218706000000005 44.5399 36.218706000000005 L 65.68090000000001 36.218706000000005 C 66.32543000000001 36.218706000000005 66.84500000000001 36.742146000000005 66.84500000000001 37.382806 C 66.84500000000001 38.023436000000004 66.32547000000001 38.546906 65.68090000000001 38.546906 z M 50.4305 47.5821 C 50.09456 47.625068999999996 49.75862 47.523506999999995 49.50472 47.30085 C 49.25472 47.07819 49.10628 46.75788 49.10628 46.42194 C 49.10628 46.0821 49.25472 45.76178 49.50472 45.53913 C 49.75863 45.31647 50.09456 45.21491 50.4305 45.25788 L 73.3215 45.25788 C 73.90744 45.332099 74.3449 45.8321 74.3449 46.42198 C 74.3449 47.00792 73.9074 47.50788 73.3215 47.58218 z M 36.8995 47.5821 C 36.25887 47.5821 35.7393 47.062569999999994 35.7393 46.421899999999994 C 35.7393 45.77736999999999 36.25883 45.257799999999996 36.8995 45.257799999999996 L 43.196400000000004 45.257799999999996 C 43.77843000000001 45.332018999999995 44.215900000000005 45.83201999999999 44.215900000000005 46.421899999999994 C 44.215900000000005 47.007839999999995 43.778400000000005 47.507799999999996 43.196400000000004 47.5821 z M 63.7085 53.6055 L 63.712407 53.6055 C 63.067876999999996 53.6055 62.548307 53.085969999999996 62.548307 52.4414 C 62.548307 51.80078 63.067837000000004 51.2812 63.712407 51.2812 L 73.325707 51.2812 L 73.3218 51.2812 C 73.96633 51.2812 74.4859 51.80073 74.4859 52.445299999999996 C 74.4859 53.08593 73.96637 53.6055 73.3218 53.6055 z M 36.8995 53.6055 C 36.25887 53.6055 35.7393 53.085969999999996 35.7393 52.4414 C 35.7393 51.80078 36.25883 51.2812 36.8995 51.2812 L 56.4735 51.2812 C 57.11412 51.2812 57.633700000000005 51.80073 57.633700000000005 52.445299999999996 C 57.633700000000005 53.08593 57.11417 53.6055 56.4735 53.6055 z M 36.8995 59.6289 L 36.8995 59.632806 C 36.25887 59.632806 35.7393 59.109366 35.7393 58.468706000000005 C 35.7393 57.82804600000001 36.25883 57.30460600000001 36.8995 57.30460600000001 L 73.3215 57.30851200000001 C 73.96603 57.30851200000001 74.4856 57.82804200000001 74.4856 58.46871200000001 C 74.4856 59.10938200000001 73.96607 59.63281200000001 73.3215 59.63281200000001 z M 55.4075 65.6523 L 55.4075 65.656206 C 54.78641 65.628862 54.2942 65.11714599999999 54.2942 64.49210599999999 C 54.2942 63.87101599999999 54.78639 63.35930599999999 55.4075 63.33190599999999 L 73.3215 63.33190599999999 C 73.63791 63.32018699999999 73.9465 63.437375999999986 74.17697 63.656125999999986 C 74.40353 63.874875999999986 74.53244 64.17565599999999 74.53244 64.49206599999998 C 74.53244 64.80847599999998 74.40352999999999 65.11315599999998 74.17697 65.33190599999998 C 73.9465 65.55065599999998 73.63790999999999 65.66784599999997 73.3215 65.65612599999997 z M 36.8995 65.6523 L 36.8995 65.656206 C 36.587 65.667925 36.27841 65.550736 36.047940000000004 65.331986 C 35.821380000000005 65.113236 35.69247000000001 64.808546 35.69247000000001 64.492146 C 35.69247000000001 64.175736 35.821380000000005 63.874956000000005 36.047940000000004 63.656206000000005 C 36.27841 63.437456000000005 36.587 63.320266000000004 36.8995 63.33198600000001 L 48.1725 63.33198600000001 C 48.48891 63.32026700000001 48.7975 63.437456000000005 49.02406 63.656206000000005 C 49.254529999999995 63.874956000000005 49.38343 64.175736 49.38343 64.492146 C 49.38343 64.80855600000001 49.25452 65.113236 49.02406 65.331986 C 48.7975 65.550736 48.4889 65.667926 48.1725 65.656206 z M 36.8995 71.67569999999999 L 36.8995 71.67960699999999 C 36.25887 71.67960699999999 35.7393 71.16007699999999 35.7393 70.51550699999999 C 35.7393 69.87488699999999 36.25883 69.35530699999998 36.8995 69.35530699999998 L 61.02850000000001 69.35530699999998 C 61.36444000000001 69.31233799999998 61.70038000000001 69.41389999999998 61.95428000000001 69.63655699999998 C 62.20428000000001 69.85921699999999 62.35272000000001 70.17952699999998 62.35272000000001 70.51546699999999 C 62.35272000000001 70.85530699999998 62.20428000000001 71.17562699999999 61.95428000000001 71.398277 C 61.700370000000014 71.620937 61.36444000000001 71.72249699999999 61.02850000000001 71.679527 z" stroke-linecap="round" />
</g>
		<g transform="matrix(1 0 0 1 -5.11 5.11)"  >
<linearGradient id="SVGID_9" gradientUnits="userSpaceOnUse" gradientTransform="matrix(1 0 0 1 0 0)"  x1="59.68" y1="64.2" x2="20.35" y2="41.6">
<stop offset="18%" style="stop-color:rgb(19,2,17);stop-opacity: 1"/>
<stop offset="100%" style="stop-color:rgb(255,38,38);stop-opacity: 1"/>
</linearGradient>
<path style="stroke: none; stroke-width: 1; stroke-dasharray: none; stroke-linecap: butt; stroke-dashoffset: 0; stroke-linejoin: miter; stroke-miterlimit: 4; fill: url(#SVGID_9); fill-rule: evenodd; opacity: 1;" vector-effect="non-scaling-stroke"  transform=" translate(-44.89, -55.11)" d="M 73.004 83.43 L 25.836000000000006 83.43 C 25.191470000000006 83.43390600000001 24.668000000000006 82.91437 24.664100000000005 82.2698 L 24.664100000000005 18.890800000000006 L 16.773500000000006 18.890800000000006 L 16.773500000000006 91.3288 L 73.0035 91.3288 z" stroke-linecap="round" />
</g>
</g>
</g>
<g transform="matrix(0.31 0 0 0.31 531.62 512.59)" id="d53e782e-d387-447c-9b36-01e8fb549680"  >
<circle style="stroke: rgb(0,0,0); stroke-width: 0; stroke-dasharray: none; stroke-linecap: butt; stroke-dashoffset: 0; stroke-linejoin: miter; stroke-miterlimit: 4; fill: rgb(0,0,0); fill-rule: nonzero; opacity: 1;" vector-effect="non-scaling-stroke"  cx="0" cy="0" r="35" />
</g>
<g transform="matrix(1 0 0 1 532 513.53)" style="" id="06a2145e-e3e6-4276-b228-8e70da4022de"  >
		<rect opacity="0" fill="rgb(0,0,0)" x="-432" y="-11.86" width="864" height="23.73"></rect>
		<text xml:space="preserve" font-family="Raleway" font-size="21" font-style="normal" font-weight="900" style="stroke: none; stroke-width: 1; stroke-dasharray: none; stroke-linecap: butt; stroke-dashoffset: 0; stroke-linejoin: miter; stroke-miterlimit: 4; fill: rgb(255,255,255); fill-rule: nonzero; opacity: 1; white-space: pre;" ><tspan x="-7.92" y="6.6" >N</tspan></text>
</g>
</svg>