<svg xmlns="http://www.w3.org/2000/svg" xmlns:xlink="http://www.w3.org/1999/xlink" version="1.1" x="0px" y="0px" viewBox="0 0 100 125" style="enable-background:new 0 0 100 100;" xml:space="preserve"><g><path d="M18.0145016,35.3647003c-1.0149364,0-1.9056492,0.7210274-2.1176224,1.7137642L6.9950442,78.814537   c-0.1369109,0.6417313,0.0216732,1.3024979,0.4345193,1.8120804c0.4128466,0.510643,1.0265656,0.8034973,1.6831026,0.8034973   h74.7199097c1.0149384,0,1.9061813-0.7210312,2.1186829-1.713768l8.9018326-41.7344856   c0.1363831-0.6422615-0.0222015-1.3035583-0.4355774-1.8141975c-0.4133759-0.5101089-1.0265656-0.8029633-1.6830978-0.8029633   H18.0145016z"/><g><path d="M13.7792568,36.6270294c0.4239473-1.9860001,2.2048435-3.4275246,4.2352448-3.4275246h68.4465332v-4.6825161    c0-1.1957874-0.9694138-2.1651974-2.1651993-2.1651974H39.1628342c-0.5907898,0-1.1559448-0.2414436-1.5644302-0.6682987    l-6.2992096-6.5835381c-0.4084854-0.4268551-0.9736385-0.6682987-1.5644283-0.6682987H7.2643061    c-1.1957874,0-2.1651969,0.9694099-2.1651969,2.1651974v56.7258682L13.7792568,36.6270294z"/><path d="M5.4586978,81.5397949c0.0062776,0.0094528,0.0118937,0.019165,0.0183034,0.0285492    C5.470922,81.5587616,5.4646449,81.5493774,5.4586978,81.5397949z"/></g></g><text x="0" y="115" fill="#000000" font-size="5px" font-weight="bold" font-family="'Helvetica Neue', Helvetica, Arial-Unicode, Arial, Sans-serif">Created by Brad</text><text x="0" y="120" fill="#000000" font-size="5px" font-weight="bold" font-family="'Helvetica Neue', Helvetica, Arial-Unicode, Arial, Sans-serif">from the Noun Project</text></svg>